<?xml version="1.0" encoding="iso-8859-1"?>
<!-- Generator: Adobe Illustrator 15.1.0, SVG Export Plug-In . SVG Version: 6.00 Build 0)  -->
<!DOCTYPE svg PUBLIC "-//W3C//DTD SVG 1.1//EN" "http://www.w3.org/Graphics/SVG/1.1/DTD/svg11.dtd">
<svg version="1.1" id="Layer_1" xmlns="http://www.w3.org/2000/svg" xmlns:xlink="http://www.w3.org/1999/xlink" x="0px" y="0px"
	 width="595.28px" height="841.89px" viewBox="0 0 595.28 841.89" style="enable-background:new 0 0 595.28 841.89;"
	 xml:space="preserve">
<g>
	<polygon style="fill:none;" points="268.957,339.979 268.957,131.55 164.743,235.765 	"/>
	<polygon style="fill:none;" points="268.957,622.801 268.957,478.473 124.629,622.801 	"/>
	<polygon style="fill:none;" points="326.324,131.318 326.324,339.979 430.654,235.648 	"/>
	<polygon style="fill:none;" points="124.179,276.33 124.178,276.33 84.065,236.216 84.065,582.238 257.076,409.227 	"/>
	<polygon style="fill:none;" points="326.324,622.801 470.65,622.801 326.324,478.473 	"/>
	<polygon style="fill:none;" points="511.215,582.238 511.215,236.216 338.205,409.227 	"/>
	<path d="M550.176,156.016h-7.67h-5.211h-8.17h-5.836h-2.951h-0.012h-3.27h-6.771l-39.066,39.068L297.768,21.635l-0.011,0.012
		l-0.012-0.012L124.178,195.201l-39.183-39.184H59.82h-7.67H32.933h-6.234v466.784v57.367h57.366h427.149h57.367v-57.367V156.016
		H550.176z M84.065,236.216l40.113,40.114h0.001l132.897,132.897L84.065,582.238V236.216z M268.957,622.801H124.629l144.328-144.328
		V622.801z M268.957,339.979L164.743,235.765L268.957,131.55V339.979z M326.324,131.318l104.33,104.33l-104.33,104.331V131.318z
		 M326.324,622.801V478.473L470.65,622.801H326.324z M511.215,582.238l-173.01-173.012l173.01-173.011V582.238z"/>
</g>
</svg>
